<svg width="65" height="64" viewBox="0 0 65 64" fill="none" xmlns="http://www.w3.org/2000/svg">
  <path d="M31.8739 31.3159L1.52966 61.6241L2.93349 63.028L33.2417 32.6837" fill="#7571B7" />
  <path
    d="M63.982 31.9997C63.982 14.5059 49.8357 0.359619 32.3419 0.359619V2.33937C40.5489 2.33937 47.964 5.65096 53.3273 11.0143C58.6906 16.3776 62.0382 23.7927 62.0382 31.9997H63.982Z"
    fill="#7571B7" />
  <path
    d="M49.7981 45.4621C49.7981 45.0301 49.6541 44.6702 49.3302 44.3822C49.0062 44.0582 48.5742 43.9142 47.9623 43.9142C47.4584 43.9142 47.0624 44.0222 46.8105 44.2022C46.5225 44.4182 46.3785 44.6701 46.3785 45.0301C46.3785 45.2101 46.4145 45.3541 46.4865 45.498C46.5585 45.642 46.6665 45.786 46.8465 45.894C47.0264 46.002 47.2424 46.11 47.5304 46.182C47.8183 46.254 48.1783 46.3619 48.6102 46.4339C49.6901 46.6139 50.518 46.9739 51.0939 47.4418C51.6699 47.9097 51.9578 48.5937 51.9578 49.4935V49.6735C51.9578 50.1415 51.8858 50.6094 51.7059 50.9694C51.5259 51.3653 51.2739 51.6893 50.9499 51.9772C50.626 52.2652 50.23 52.4812 49.7621 52.6252C49.2942 52.7691 48.7902 52.8411 48.1783 52.8411C47.4944 52.8411 46.8825 52.7331 46.3785 52.5532C45.8746 52.3732 45.4426 52.0852 45.0827 51.7613C44.7227 51.4373 44.4708 51.0054 44.2908 50.5734C44.1108 50.1055 44.0388 49.6015 44.0388 49.0616V48.6297H45.9826V48.9896C45.9826 49.6015 46.1626 50.1055 46.5225 50.4654C46.8825 50.8254 47.4584 51.0054 48.2143 51.0054C48.7902 51.0054 49.2582 50.8614 49.5461 50.6094C49.8341 50.3574 49.9781 50.0335 49.9781 49.6735C49.9781 49.4935 49.9421 49.3496 49.9061 49.2056C49.8341 49.0616 49.7261 48.9176 49.5821 48.7736C49.4381 48.6656 49.2222 48.5217 48.9702 48.4497C48.7182 48.3417 48.3943 48.2697 47.9983 48.1977C47.4584 48.1257 46.9904 47.9817 46.5585 47.8378C46.1266 47.6938 45.7306 47.5138 45.4426 47.2618C45.1187 47.0099 44.8667 46.7219 44.6867 46.3619C44.5068 46.002 44.4348 45.57 44.4348 45.0661V44.9941C44.4348 44.5622 44.5068 44.1662 44.6867 43.8063C44.8667 43.4463 45.1187 43.1223 45.4066 42.8704C45.7306 42.6184 46.0906 42.4024 46.5225 42.2585C46.9545 42.1145 47.4584 42.0425 47.9983 42.0425C48.6102 42.0425 49.1502 42.1145 49.6181 42.2944C50.0861 42.4744 50.482 42.6904 50.806 43.0144C51.1299 43.3023 51.3819 43.6623 51.5259 44.0222C51.7059 44.4182 51.7778 44.8141 51.7778 45.2461V45.786H49.7981V45.4621Z"
    fill="#7571B7" />
  <path
    d="M12.9762 11.2659H14.9919L17.0437 20.6607H17.2957L19.3114 11.2659H21.3272L18.9874 21.6326H15.3159L12.9762 11.2659Z"
    fill="#7571B7" />
  <path
    d="M63.5138 63.0281V62.0202H2.46547V1.97975H62.506V63.0281H63.5138V62.0202V63.0281H64.4857V0H0.485718V64H64.4857V63.0281H63.5138Z"
    fill="#7571B7" />
  <path d="M33.4575 63.0274V0.971191H31.5138V63.0274" fill="#7571B7" />
  <path d="M63.5139 31.0278H1.45764V32.9716H63.5139" fill="#7571B7" />
</svg>